<svg xmlns="http://www.w3.org/2000/svg" viewBox="0 0 128 128" role="img" aria-label="AristonNET">
  <defs>
    <linearGradient id="g" x1="18" y1="112" x2="110" y2="18" gradientUnits="userSpaceOnUse">
      <stop offset="0" stop-color="#991b1b"/>
      <stop offset="0.55" stop-color="#ef4444"/>
      <stop offset="1" stop-color="#fecaca"/>
    </linearGradient>
    <filter id="s" x="-20%" y="-20%" width="140%" height="140%">
      <feDropShadow dx="0" dy="8" stdDeviation="8" flood-color="#7f1d1d" flood-opacity="0.35"/>
    </filter>
  </defs>
  <rect x="10" y="10" width="108" height="108" rx="26" fill="#0f172a"/>
  <path d="M64 16c26.5 0 48 21.5 48 48s-21.5 48-48 48-48-21.5-48-48 21.5-48 48-48Z" fill="url(#g)" filter="url(#s)"/>
  <path d="M64 32c-10.5 12.9-24 26-24 42.6C40 88 50.7 98 64 98s24-10 24-23.4C88 58 74.5 44.9 64 32Z" fill="#fff" opacity="0.95"/>
  <path d="M67.7 92.2c8-2.6 13-9.2 13-17.7 0-9.3-6.1-17-13.8-25.4-1.5 7.8-9.9 12.1-13.2 19.2-4.1 8.7 1.5 20.8 14 23.9Z" fill="#ef4444"/>
  <path d="M60.5 55.4c-7.2 7.4-12.8 13-12.8 21.2 0 7.7 5.2 14.1 12.5 15.7-4.1-5.7-2.9-12.5 1.2-17.1 4.7-5.2 8.6-9.8-.9-19.8Z" fill="#fca5a5" opacity="0.98"/>
</svg>
